HIERARCHY
ROOT Hips
{
    OFFSET 0.000000 0.000000 0.000000
    CHANNELS 6 Xposition Yposition Zposition Zrotation Xrotation Yrotation
    JOINT Spine
    {
        OFFSET -0.000000 14.517291 0.000000
        CHANNELS 3 Zrotation Xrotation Yrotation
        JOINT Spine1
        {
            OFFSET -0.000000 37.558300 0.000000
            CHANNELS 3 Zrotation Xrotation Yrotation
            JOINT Neck
            {
                OFFSET -0.000000 37.404057 3.400369
                CHANNELS 3 Zrotation Xrotation Yrotation
                JOINT Head
                {
                    OFFSET -0.000000 24.785618 -3.540803
                    CHANNELS 3 Zrotation Xrotation Yrotation
                    End Site
                    {
                        OFFSET -0.000000 35.408028 0.000000
                    }
                }
            }
            JOINT LeftShoulder
            {
                OFFSET 6.992933 33.973492 -0.192664
                CHANNELS 3 Zrotation Xrotation Yrotation
                JOINT LeftArm
                {
                    OFFSET 21.527611 0.000000 0.000000
                    CHANNELS 3 Zrotation Xrotation Yrotation
                    JOINT LeftForeArm
                    {
                        OFFSET 56.353916 0.000000 0.000000
                        CHANNELS 3 Zrotation Xrotation Yrotation
                        JOINT LeftHand
                        {
                            OFFSET 47.774071 0.000000 0.000000
                            CHANNELS 3 Zrotation Xrotation Yrotation
                            End Site
                            {
                                OFFSET 26.556021 0.000000 0.000000
                            }
                        }
                    }
                }
            }
            JOINT RightShoulder
            {
                OFFSET -7.065357 33.973492 -0.192664
                CHANNELS 3 Zrotation Xrotation Yrotation
                JOINT RightArm
                {
                    OFFSET -21.527611 0.000000 0.000000
                    CHANNELS 3 Zrotation Xrotation Yrotation
                    JOINT RightForeArm
                    {
                        OFFSET -56.353916 0.000000 0.000000
                        CHANNELS 3 Zrotation Xrotation Yrotation
                        JOINT RightHand
                        {
                            OFFSET -47.774071 0.000000 0.000000
                            CHANNELS 3 Zrotation Xrotation Yrotation
                            End Site
                            {
                                OFFSET -26.556021 0.000000 0.000000
                            }
                        }
                    }
                }
            }
        }
    }
    JOINT LeftUpLeg
    {
        OFFSET 17.704014 0.000000 0.000000
        CHANNELS 3 Zrotation Xrotation Yrotation
        JOINT LeftLeg
        {
            OFFSET -0.000000 -81.181816 0.000000
            CHANNELS 3 Zrotation Xrotation Yrotation
            JOINT LeftFoot
            {
                OFFSET -0.000000 -62.821102 0.000000
                CHANNELS 3 Zrotation Xrotation Yrotation
                JOINT LeftToeBase
                {
                    OFFSET -0.000000 -11.507608 26.556021
                    CHANNELS 3 Zrotation Xrotation Yrotation
                    End Site
                    {
                        OFFSET -0.000000 0.000000 7.081605
                    }
                }
            }
        }
    }
    JOINT RightUpLeg
    {
        OFFSET -17.704014 0.000000 0.000000
        CHANNELS 3 Zrotation Xrotation Yrotation
        JOINT RightLeg
        {
            OFFSET -0.000000 -81.181816 0.000000
            CHANNELS 3 Zrotation Xrotation Yrotation
            JOINT RightFoot
            {
                OFFSET -0.000000 -62.821102 0.000000
                CHANNELS 3 Zrotation Xrotation Yrotation
                JOINT RightToeBase
                {
                    OFFSET -0.000000 -11.507608 26.556021
                    CHANNELS 3 Zrotation Xrotation Yrotation
                    End Site
                    {
                        OFFSET -0.000000 0.000000 7.081605
                    }
                }
            }
        }
    }
}
MOTION
Frames:    10
Frame Time:    0.008333
-21.403507    167.001953    -21.210222    -12.831021    -18.579123    39.267792    1.660098    0.802081    -4.029773    6.407789    5.666052    -1.655412    29.047556    1.301450    -5.093058    -8.780157    -2.635845    -10.804526    19.117729    7.614820    -28.534397    -30.702131    18.144226    -63.469444    7.192472    -44.345776    -96.657234    -13.535069    -36.517078    -18.371025    11.954901    -0.806554    -12.517633    20.198507    -6.563443    14.637965    -7.832445    0.786066    90.646263    -14.209167    6.274605    19.440269    23.766327    -3.745803    6.633029    -3.341412    31.628855    -17.226318    6.786961    -16.418566    33.376797    0.000000    0.000000    0.000000    -97.018318    -47.524536    -60.422916    8.650035    20.844952    -7.964444    14.855518    19.862226    -23.343847    0.000000    0.000000    0.000000    
-21.530434    167.112610    -21.121580    -12.882731    -18.758745    39.518940    1.823198    0.788433    -3.481624    6.389355    5.570244    -1.466167    28.971764    1.449427    -5.344021    -8.599604    -2.983896    -11.010371    19.029921    7.557992    -28.401613    -31.043568    18.275721    -63.500896    6.640534    -43.678539    -97.298347    -13.165920    -36.283504    -18.058769    11.990160    -0.842701    -12.382031    20.121159    -6.528736    14.339337    -8.172923    0.355946    90.267159    -14.201982    6.186777    19.066771    24.008734    -3.765179    6.476049    -3.364529    31.566776    -17.279957    6.683312    -16.315859    33.288208    0.000000    0.000000    0.000000    -96.704346    -47.289913    -60.288628    8.716977    20.932611    -7.880244    14.728296    19.584368    -23.164417    0.000000    0.000000    0.000000    
-21.655134    167.236038    -21.010145    -12.920658    -18.978111    39.786758    1.992966    0.802620    -2.930521    6.354959    5.459157    -1.274223    28.926691    1.703848    -5.657772    -8.406388    -3.456348    -11.263529    18.967388    7.525255    -28.277224    -31.250525    18.449675    -63.591629    6.157130    -43.144218    -97.886284    -12.795503    -36.163658    -17.647448    12.091249    -0.861239    -12.280159    20.027605    -6.384139    14.062960    -8.653012    -0.318629    89.828140    -13.898699    6.038826    18.641775    24.282352    -3.751850    6.273045    -3.435214    31.498878    -17.315756    6.574440    -16.198792    33.228779    0.000000    0.000000    0.000000    -96.335327    -47.048580    -60.111019    8.784882    21.042385    -7.787458    14.508123    19.321032    -22.895700    0.000000    0.000000    0.000000    
-21.776625    167.346313    -20.897728    -12.945537    -19.188862    40.092224    2.165395    0.831326    -2.407200    6.273291    5.352524    -1.089539    28.943760    1.900790    -5.941306    -8.260349    -3.901906    -11.514098    18.960991    7.478603    -28.043472    -31.471266    18.619520    -63.783585    5.833471    -42.430729    -98.246529    -12.334863    -35.724091    -17.416161    12.245551    -0.776308    -12.101801    19.906258    -6.498432    13.713758    -8.995527    -0.781792    89.445938    -13.888842    5.907601    18.289204    24.540983    -3.757452    6.030162    -3.512675    31.439669    -17.378761    6.485119    -16.097528    33.200218    0.000000    0.000000    0.000000    -95.992584    -46.761131    -59.939205    8.866474    21.148169    -7.721329    14.349195    19.004971    -22.616920    0.000000    0.000000    0.000000    
-21.888416    167.464691    -20.776316    -12.954773    -19.422518    40.419735    2.357749    0.849383    -1.905777    6.169753    5.294181    -0.913799    28.979095    2.069902    -6.193077    -8.144483    -4.305708    -11.742935    18.927792    7.372369    -27.860245    -31.868273    18.641705    -63.793831    4.911537    -41.561363    -99.139694    -11.840373    -35.698952    -16.641476    12.355044    -0.797136    -11.995955    19.863665    -6.322572    13.410765    -9.520719    -1.514079    88.990623    -13.667708    5.707084    17.939320    24.803385    -3.736608    5.776544    -3.597835    31.361221    -17.435295    6.410656    -15.970753    33.170929    0.000000    0.000000    0.000000    -95.625854    -46.461124    -59.713497    8.959650    21.280216    -7.654873    14.063348    18.719536    -22.158390    0.000000    0.000000    0.000000    
-21.986595    167.595367    -20.641018    -12.946107    -19.717958    40.758018    2.565301    0.999444    -1.415018    6.108392    5.113556    -0.736433    28.851549    2.240186    -6.482010    -7.837562    -4.661917    -11.948929    18.848394    7.288229    -27.680311    -32.122120    18.772362    -63.822708    4.529866    -40.715931    -99.572372    -11.577816    -35.134617    -16.810472    12.410687    -0.757072    -11.958299    19.871077    -6.215386    13.158939    -10.016480    -2.160120    88.530777    -13.436408    5.549279    17.638941    25.087210    -3.639063    5.519297    -3.643926    31.238976    -17.512268    6.325630    -15.853914    33.100029    0.000000    0.000000    0.000000    -95.168068    -46.158665    -59.391129    9.057384    21.417328    -7.541959    14.084434    18.210970    -22.205612    0.000000    0.000000    0.000000    
-22.089333    167.733459    -20.494049    -12.922288    -20.015587    41.116928    2.748693    1.132403    -0.958201    6.080401    4.988890    -0.575028    28.720131    2.387258    -6.764718    -7.565547    -5.016218    -12.158933    18.724167    7.170895    -27.466026    -32.395378    18.876818    -63.806313    3.932539    -39.906338    -100.183395    -11.356068    -34.846127    -16.629255    12.422233    -0.739286    -11.942706    19.901392    -6.097970    12.720768    -12.016819    -2.207143    87.036682    -13.645312    6.350195    24.054216    25.367569    -3.528199    5.278219    -3.686665    31.087175    -17.587175    6.227536    -15.718218    33.023792    0.000000    0.000000    0.000000    -94.721451    -45.845581    -59.029224    9.153478    21.578009    -7.473682    14.253176    17.683456    -22.184393    0.000000    0.000000    0.000000    
-22.170536    167.858597    -20.347181    -12.861254    -20.332390    41.503353    2.998645    1.317348    -0.548906    5.888978    4.839385    -0.420283    28.727602    2.502625    -7.003723    -7.383399    -5.287986    -12.360861    18.683846    7.069357    -27.194372    -32.606937    18.977800    -63.840229    3.402297    -39.110672    -100.706169    -11.179946    -34.520233    -16.514711    12.536735    -0.736938    -11.927687    19.959446    -5.866719    12.489821    -12.482361    -2.954184    86.540199    -13.148804    6.031105    24.289762    25.625412    -3.385895    5.009226    -3.719816    30.932705    -17.638762    6.130198    -15.616442    32.917133    0.000000    0.000000    0.000000    -94.267609    -45.517059    -58.628201    9.270432    21.745714    -7.384058    13.898408    17.326750    -21.944304    0.000000    0.000000    0.000000    
-22.262964    168.001038    -20.189098    -12.772470    -20.705143    41.903099    3.236517    1.603831    -0.183979    5.790524    4.615717    -0.279471    28.477961    2.682357    -7.287792    -6.959932    -5.543200    -12.511456    18.581833    7.046508    -27.021761    -32.924774    18.884573    -63.678631    2.896541    -38.152847    -101.279266    -10.886400    -34.022396    -16.462938    12.558548    -0.702291    -11.932612    20.023052    -5.632970    12.369664    -13.220375    -3.495922    85.909622    -13.243930    6.040216    24.291479    25.909866    -3.196282    4.770267    -3.712833    30.776560    -17.758286    5.998952    -15.491483    32.802578    0.000000    0.000000    0.000000    -93.736229    -45.201283    -58.172318    9.354624    21.935015    -7.223968    13.796453    16.868196    -21.851158    0.000000    0.000000    0.000000    
-22.342678    168.120270    -20.050602    -12.658512    -21.028017    42.295815    3.486839    1.874338    0.139206    5.608892    4.327299    -0.146908    28.220028    3.080746    -7.625781    -6.456374    -5.941117    -12.652243    18.440092    7.100936    -26.901253    -32.679764    19.154322    -63.627350    2.816565    -38.059582    -101.531464    -11.492436    -33.896252    -16.726213    12.532320    -0.556327    -11.703054    20.194605    -5.717554    12.011872    -13.634717    -3.756791    85.455933    -13.198321    6.065752    24.427353    26.137531    -3.030751    4.549674    -3.730860    30.519371    -17.842649    5.858022    -15.263758    32.694992    0.000000    0.000000    0.000000    -93.310211    -44.890648    -57.759579    9.454301    22.120289    -7.051836    13.704939    16.485416    -21.817490    0.000000    0.000000    0.000000    
